<svg viewBox="0 0 38 65" fill="none" xmlns="http://www.w3.org/2000/svg">
    <path d="M29.535 63.6047C31.5258 65.5184 34.691 65.4558 36.6047 63.465C38.5184 61.4742 38.4558 58.309 36.465 56.3953L29.535 63.6047ZM5 33.0851L1.45911 29.5549C0.511688 30.5052 -0.0139885 31.7965 0.000282288 33.1383C0.0145569 34.4801 0.567585 35.7599 1.53501 36.6898L5 33.0851ZM36.5409 8.53017C38.4906 6.57458 38.4857 3.40876 36.5302 1.45911C34.5746 -0.490551 31.4088 -0.485744 29.4591 1.46984L36.5409 8.53017ZM36.465 56.3953L8.465 29.4804L1.53501 36.6898L29.535 63.6047L36.465 56.3953ZM8.5409 36.6153L36.5409 8.53017L29.4591 1.46984L1.45911 29.5549L8.5409 36.6153Z" fill="#C81F56" fill-opacity="0.1"/>
</svg>